<?xml version="1.0" encoding="UTF-8"?>
<svg id="Layer_1" data-name="Layer 1" xmlns="http://www.w3.org/2000/svg" viewBox="0 0 512 512">
  <defs>
    <style>
      .cls-1 {
        fill: #231f20;
      }
    </style>
  </defs>
  <g>
    <path class="cls-1" d="M254.01,112.04v.31c.2-.1.2-.21,0-.31Z"/>
    <path class="cls-1" d="M145.48,291.44c1.8-.11,5.52.39,6.95-.2.38-.16.35-.72.57-.74,2.17-.21,4.35.12,7.18-.22,20.07-2.46,37.32-5.01,56.98-10.18,6.1-1.6,7.34-1.39,13.51-1.38,13.92.02,29.66-1.83,39.04-13.54.97-1.22,4.94-7.67,5.36-8.95.31-.95.28-1.74.24-2.71,1.94.47,1.11,3.65,1.32,5.36.99,7.88,8.22,13.79,15.92,14.24,9.22.54,24.41-8.4,33.39-12.03,10.65-4.32,22.02-8.01,33.48-8.81,1.8-.13,5.34.36,6.77-.07,1.12-.33,3.89-4.84,4.52-6.05.57-1.1,3.16-6.53,2.03-7.29-6.36-1.9-12.82-3.67-18.98-6.13-2.4-.96-4.85-2.45-7.19-3.38-.81-.32-2.64-.04-1.63-1.19.83-.94,2.26-1.77,3.25-2.97,10.48-12.84,7.85-27.86,6.41-43.04-.53-5.61-5.27-52.92-5.94-58.43-.13-1.04-.9-2.08-.6-3.29.31-.35,1.9,1.4,2.18,1.7,1.66,1.73,3.21,3.66,4.79,5.47l1.11.13c-.05-.64-.62-1.1-.79-1.7-2.62-9.33-4.55-18.99-8.08-27.98-1.2-4.68-3.05-9.14-4.66-13.68-1.85,3.54-4,7.38-5.34,11.13-.79,2.2-1.94,5.73-1.8,7.99.11,1.73,1.23,3.64,1.62,5.36,1.52,6.62,1.56,14.03,2.26,20.75,1.41,13.51,9.92,79.06,4.87,91.32-.31.75-2.71,5.28-3.06,5.49-.72.42-6-2.58-7.19-3.11-9.38-4.13-25.85-10.69-35.81-10.2-.44.02-.9-.31-1.27-.29-.82.03-3.56,3.49-4.04,4.31-1.17,2.02-2.94,7.28-2.92,9.53.01,1.2,2.32.63,3.22.77,9.7,1.52,19.29,4.41,28.52,7.86,5.77,2.16,11.75,5.26,17.61,6.96,1.01.29,2.39.2,3.41.63.44.19.48.07.39.7-3.64-.23-7.41,1.18-10.88,2.34-16.12,5.39-45.9,24.9-51.85-2.88-.28-1.3-.37-2.93-.39-4.27,0-.27-.66-.21-.78-.15-.38.17-1.2,4.61-1.79,5.36-5.53,12.97-20.1,20.53-33.32,23.25l-.8-.62c3.17-.77,5.72-3.99,7.59-6.56,10.47-14.33,7.48-28.78-8.01-37.34-17.56-9.71-30.58-3.18-44.51,8.46-9.66,8.07-19.18,18.34-27.69,27.66-2.69,2.94-6.22,8.05-8.96,10.47-.13.12-.8.46-.83.42.6-9.24,1.17-18.18.94-27.53-.25-10.37-1.17-20.77-1.87-31.08-1.73-25.56-3.85-51.27-8.1-76.47-.69-4.11-1.86-8.35-2.3-12.56-.05-.44.3-1.75.14-1.91-.03-.03-.88-.13-.95.19-2.94,5.21-7.27,10.74-8.84,16.6-1.08,4.01,1.38,5.08,2.65,8.54,2.22,6,2.39,15.5,3.13,22.05,3.19,28.33,6.4,57.56,7.13,86.15.15,5.88.61,16.97-1.01,22.33-.47,1.57-2.35,1.52-3.36,1.93-9.04,3.67-19.81,5.44-29.47,7.22-8.73,1.61-17.53,3.06-26.35,4.12-2.44.29-5.73.18-8.01.69-.99.22-1.71,1.11-.53,1.64.81.36,4.86.67,6.06.78,19.15,1.72,36.37.2,55.33-.94ZM164.77,271.23c12.21-14.27,35.29-36.46,54.82-37.53,10.05-.55,20.36,4.32,26.01,12.68.51.75,2.22,3.32,1.9,4.01-.62,1.35-4.64,3.44-6.06,4.22-20.35,11.1-41.31,15.49-63.93,19.09-4.14.66-8.63.73-12.7,1.3-.75.1-3.06,1.51-3.29.43-.06-.26,2.81-3.67,3.26-4.2Z"/>
    <path class="cls-1" d="M327.17,350.93c2.4-4.32,4.28-13.05,3.75-17.93-1.1-10.27-8.76-16.52-11.93-25.7-.73-2.12-1.33-4.31-1.72-6.52-.71-.15-.5.08-.7.4-.67,1.07-2.06,3.98-2.56,5.21-1.52,3.77-1.99,8.19-.96,12.14,1.68,6.42,7.84,10.37,10.66,16.08.59,1.2,2.31,5.17,1.8,6.28-1.19,2.57-10.54,6.56-13.37,6.85-11.63,1.21-18.01-5.86-16.97-17.26.11-1.17,1.57-3.5,1.58-4.05,0-.83-1.25-1.82-2.01-.75-4.67,12.73-14.77,21.08-27.01,26.16-1.25.52-10.66,4.05-11.1,3.67-.07-.97,1.13-1.04,1.71-1.55,12.79-11.2,12.1-26.5-.3-37.63-23.5-21.1-41.18,2.74-55.97,19.6-.91,1.04-2.04,1.91-2.95,2.96-.86.99-5.65,7.53-6.13,7.63-2.76.59-3.48-4.12-4.21-5.7-.78-1.7-1.28-1.58-1.48-4.12-.23-2.87.15-5.5.93-8.23-3.99,0-8.22,7.96-8.06,11.33,1.41,4.76,3.68,9.5,5.03,14.24.46,1.62.51,3.67.92,4.99.15.5,1.45,2.2,1.85,3.12,1.42,3.27,2.01,7.68,1.1,11.16-.73,2.8-6.8,7.84-9.27,9.7-16.04,12.06-51.41,26.79-70.03,15.36-14-8.6-15.46-26.42-10.93-40.67,1.27-4.01,3.12-7.88,5.4-11.41.11-.69-1.38-1.18-1.93-1.06-.37.08-3.4,4.86-3.79,5.61-6.61,12.59-8.93,33.43-3.33,46.56,14.49,33.97,63.03,17.13,83.4-1.62,8.62-7.93,15.3-17.93,15.85-30.01.25-.26,4.55,1.8,5.28,2.03,16.91,5.4,49.31,1.8,65.91-4.37,7.81-2.9,20.57-10.96,23.2-19.42.33-1.05-.63-2.85,1.06-2.49-.3,5.11.05,11.54,3.43,15.7,9.17,11.27,27.56,4.98,33.82-6.27ZM204.6,353.61c-1.21-.19-8.03-3.34-8.2-4.21-.25-1.26,1.35-1.84,1.97-2.6,11.59-14.27,29.57-31.35,49.29-20.7,4.03,2.18,7.94,6.33,10.25,10.27.82,1.4,3.19,5.27,2.08,6.6-.63.76-7.62,3.92-9.02,4.5-14.47,6.02-30.76,8.6-46.36,6.13Z"/>
    <path class="cls-1" d="M390.79,361.69c12.21-18.36,9.06-36.44,7.34-57.03-4.2-50.05-9.75-100.18-14.3-150.18-.92-10.12-1.53-20.31-2.5-30.46-.12-1.27-.73-2.68-.46-3.89,3.01,2.73,5.6,5.78,8.24,8.87l.93-.32-14.92-44.31-.86.53c-2.01,5.8-5.83,11.44-7.08,17.48-.76,3.66,2.1,5.88,2.62,9.54.69,4.83.58,10.85.98,15.82,2.08,25.91,5.18,51.48,7.77,77.43,3.61,36.16,6.9,72.48,10.89,108.51.84,7.58,2.3,15.41,2.81,23,.53,7.97-.65,11.28-6.54,16.5-.29.25-2.61,2.24-2.8,2.02.71-5.37,1.27-11.27.59-16.61-2.31-18.14-10.47-28.1-23.29-40.14-2.51-2.36-5.47-4.49-7.77-7.15-.1-.71.12-.36.47-.45,1.42-.36,2.88-1.29,3.8-1.52.67-.17,2.82.9,1.8-.69-.14-.22-1.82-1.03-2.32-1.41-5.15-3.97-11.91-9.59-15.53-14.95-.39-.58-.28-1.78-1.29-1.66.03,1.91-.97,3.96-1.22,5.78-.67,4.85-.32,12.79,1.68,17.24,3.59,7.97,9.35,11.35,15.4,16.93,13.18,12.15,23.19,24.53,25.49,42.91.22,1.72,1.05,2.23-.15,3.9-1.64,2.29-10.45,8.17-13.25,10.06-14.78,9.98-36.98,22.25-53.78,28.01-.94.32-1.44-.22-1.23,1.09,1.77-.15,3.72.34,5.44.35,26.73.01,57.8-12.27,73.04-35.19Z"/>
    <path class="cls-1" d="M425.18,283.21c-3.17-38.26-6.66-76.18-9.95-114.42-.96-11.18-1.8-22.47-2.87-33.58-.37-3.84-.5-7.69-.88-11.49-.03-.29-1.23-2.69.18-1.73,1.91,2.42,4.39,4.35,6.37,6.69.33.39,1.4,3.09,2.18,2.33l-15.23-45.56c-.65-.51-.48-.17-.63.31-1.72,5.32-7.53,15.87-6.46,21.08.28,1.38,1.71,3.38,2.03,5.12.34,1.86.84,4.91,1,6.77,1.57,17.63,2.58,35.22,4.05,52.85,4.26,51.01,10.02,101.74,14.3,152.66,1.41,16.77,4.25,33.94-3.89,49.6-12.23,23.54-40.13,32.15-63.3,40.87-.59.22-4.75.99-3.71,2.03,2.83-.73,5.74-.38,8.55-.62,26.72-2.37,51.23-13.86,62.82-39.17,13.56-29.61,8.03-62.5,5.44-93.76Z"/>
    <path class="cls-1" d="M135.75,366.19c5.25.99,11.55-6.92,12.81-11.41.2-.72.95-4.7-.38-4.43-.47.1-.74,2.62-1.03,3.32-1.36,3.18-5.22,5.57-8.14,2.74-6.66-6.48-.94-23.12,1.97-30.67.33-.86,3.28-6.83,3-7.1-.38.04-.66-.21-.93.22-.29.46-.66,1.19-.99,1.74-5.78,9.54-14.31,29.48-11.11,40.46.47,1.61,3.13,4.82,4.81,5.14Z"/>
    <path class="cls-1" d="M107.58,247.28c5.25.99,11.55-6.92,12.81-11.41.2-.72.95-4.7-.38-4.43-.47.1-.74,2.62-1.03,3.32-1.36,3.18-5.22,5.57-8.14,2.74-6.66-6.48-.94-23.12,1.97-30.67.33-.86,3.28-6.83,3-7.1-.38.04-.66-.21-.93.22-.29.46-.66,1.19-.99,1.74-5.78,9.54-14.31,29.48-11.11,40.46.47,1.61,3.13,4.82,4.81,5.14Z"/>
    <path class="cls-1" d="M187.97,308.84l12.74,9.7c.34.18.93,0,1.16-.25l6.57-12.76-13.18-10.16-7.29,13.47Z"/>
    <path class="cls-1" d="M299.59,189.18l13.44,9.8c.74-.19,1.01-1.7,1.4-2.36.88-1.52,5.88-9.44,5.61-10.45-3.86-3.93-8.59-7.09-13.17-10.17l-7.28,13.18Z"/>
    <path class="cls-1" d="M218.41,411.62c-13,4.45-26.44,9.16-39.79,12.45-2.07.51-7.11,1.91-8.91,2-.99.05-1.93-.45-3.07-.3-.39.05-.33,1.04.63,1.24,10.66,2.15,24.63-1.68,34.9-4.88,8.67-2.71,21.78-7.15,27.29-14.68.21-.29.75-.95.45-1.26-.44-.46-10.03,5.22-11.51,5.44Z"/>
    <path class="cls-1" d="M300.33,385.36c-2.28-1.85-4.75-3.52-7.15-5.22l-7.9,12.15c3.52,3.45,7.59,6.23,11.37,9.34.35.29.47,1.2,1.19,1.14.72-.18,7.7-11.84,7.64-12.58-.06-.71-4.29-4.12-5.16-4.83Z"/>
    <path class="cls-1" d="M257.42,399.66c-1.18-1.03-9.27-7.47-10.02-7.7-.36-.11-.74-.13-1.11-.1-.36,1.73-7.5,10.95-7.32,11.62.09.33,4.3,4.18,4.94,4.73,1.91,1.64,4.38,3.38,6.42,4.93.58.43.64,1.64,1.81.18,1.29-1.62,5.45-8.21,6.15-10.02.74-1.91.54-2.42-.85-3.64Z"/>
    <path class="cls-1" d="M261.31,397.94c-.72,1.31-2.51,3.77-1.46,5.05,2.76,2.24,5.59,4.41,8.36,6.62.79.63,2.74,3.29,3.94,2.45l6.79-12.25-12.15-9.76c-.47.08-4.94,6.92-5.48,7.9Z"/>
    <path class="cls-1" d="M253.64,167.75c2.29,1.46,9.89,6.51,10.18,9.1.33,2.91-3.03,6.54-5.15,8.25-.85.69-2.31.61-2.02,1.87.87.85,5.23-3.73,5.91-4.5,2.55-2.87,5.24-6.63,5.29-10.59.08-6.44-3.08-10.03-8.4-13.05-.86-.49-5.83-2.95-6.39-2.94-.97.02-3.48,4.9-4.24,6-.57.83-1.66,1.29-1.49,2.37,2.05,1.2,4.3,2.22,6.3,3.49ZM254.01,157.74c.2.1.2.21,0,.31v-.31Z"/>
    <path class="cls-1" d="M267.08,285.86l-6.7,11.8,12.28,9.33c1.33-1.82,7.48-10.97,7.32-12.59l-11.97-9.19-.94.65Z"/>
    <path class="cls-1" d="M280.64,296.2c.15.58,7.9,7,9,7.81.78.57,2.37,1.89,3.23,1.75.23-.04.25-.96.52-1.37,1.69-2.61,5.1-7.03,6-9.86.14-.45.38-1.03.11-1.47l-11.85-8.74c-.98,1.31-7.19,11.21-7.01,11.88Z"/>
  </g>
  <path class="cls-1" d="M363.41,348.5c-.7,1.15-1.09,1.28-1.66,1.66-3.97,2.05-12.22,7.04-18.81,11.9-.64.45-.9.26-.7-.64.13-.58.45-1.73.9-2.75.38-.83,2.37-2.94,3.97-4.22.58-.45.64-.58-.26-.9-3.26-1.15-4.41-2.69-4.41-5.05,0-4.16,4.22-10.24,8.12-13.43,1.41-1.09,3.07-2.24,5.18-2.24,2.56,0,3.77,1.15,3.84,3.26,0,1.22-.38,2.81-1.09,4.61-.83,2.11-1.34,2.18-2.69.9-.77-.83-1.73-1.15-2.5-1.15-3.58,0-6.08,2.18-6.08,3.33,0,1.47,5.89,3.97,8.44,3.97.26,0,.64-.06,1.22-.26,1.98-.58,5.82-2.37,6.59-2.94,1.54-1.15,2.05-.7,1.41.96-.19.51-.9,2.05-1.47,3.01Z"/>
</svg>